<?xml version="1.0" encoding="UTF-8"?>
<svg version="1.1" xmlns="http://www.w3.org/2000/svg" width="48" height="48">
<path d="M0 0 C4.39107156 2.52322768 7.54402438 5.38083713 9.59375 10.078125 C10.88054662 18.54647228 9.34044166 25.02901508 4.59375 32.078125 C0.88480249 37.00173658 -2.96459577 41.79207012 -7.40625 46.078125 C-15.6472799 42.47942199 -20.25161895 33.64135428 -24.40625 26.078125 C-24.78394531 25.44132812 -25.16164063 24.80453125 -25.55078125 24.1484375 C-27.38208611 19.71651249 -26.89707135 14.76609812 -26.40625 10.078125 C-24.35652438 5.38083713 -21.20357156 2.52322768 -16.8125 0 C-11.36277002 -2.08788356 -5.44972998 -2.08788356 0 0 Z M-13.78125 10.703125 C-15.89331506 13.78998932 -16.01820145 15.4064163 -15.40625 19.078125 C-13.90625 21.578125 -13.90625 21.578125 -11.40625 23.078125 C-7.7345413 23.69007645 -6.11811432 23.56519006 -3.03125 21.453125 C-0.91918494 18.36626068 -0.79429855 16.7498337 -1.40625 13.078125 C-2.90625 10.578125 -2.90625 10.578125 -5.40625 9.078125 C-9.0779587 8.46617355 -10.69438568 8.59105994 -13.78125 10.703125 Z " fill="#FF3C00" transform="translate(32.40625,1.921875)"/>
</svg>
